<mxfile host="app.diagrams.net" agent="Mozilla/5.0 (X11; Linux x86_64) AppleWebKit/537.36 (KHTML, like Gecko) Chrome/126.0.0.0 Safari/537.36" version="28.1.0">
  <diagram name="Page-1" id="3BRNOOOKTHJXB9dGDn0k">
    <mxGraphModel dx="2883" dy="2063" grid="1" gridSize="10" guides="1" tooltips="1" connect="1" arrows="1" fold="1" page="1" pageScale="1" pageWidth="850" pageHeight="1100" math="0" shadow="0">
      <root>
        <mxCell id="0" />
        <mxCell id="1" parent="0" />
        <mxCell id="QGHms9Sv3pDndkTJVxUb-1" value="Aircraft - immutable class" style="swimlane;fontStyle=1;align=center;verticalAlign=top;childLayout=stackLayout;horizontal=1;startSize=26;horizontalStack=0;resizeParent=1;resizeParentMax=0;resizeLast=0;collapsible=1;marginBottom=0;whiteSpace=wrap;html=1;" vertex="1" parent="1">
          <mxGeometry x="-160" y="40" width="180" height="162" as="geometry" />
        </mxCell>
        <mxCell id="QGHms9Sv3pDndkTJVxUb-2" value="- serialNo&lt;div&gt;- model&lt;/div&gt;&lt;div&gt;- totalSeats&lt;/div&gt;&lt;div&gt;- mfgDate&lt;/div&gt;&lt;div&gt;- mfgLoc&lt;/div&gt;" style="text;strokeColor=none;fillColor=none;align=left;verticalAlign=top;spacingLeft=4;spacingRight=4;overflow=hidden;rotatable=0;points=[[0,0.5],[1,0.5]];portConstraint=eastwest;whiteSpace=wrap;html=1;" vertex="1" parent="QGHms9Sv3pDndkTJVxUb-1">
          <mxGeometry y="26" width="180" height="94" as="geometry" />
        </mxCell>
        <mxCell id="QGHms9Sv3pDndkTJVxUb-3" value="" style="line;strokeWidth=1;fillColor=none;align=left;verticalAlign=middle;spacingTop=-1;spacingLeft=3;spacingRight=3;rotatable=0;labelPosition=right;points=[];portConstraint=eastwest;strokeColor=inherit;" vertex="1" parent="QGHms9Sv3pDndkTJVxUb-1">
          <mxGeometry y="120" width="180" height="8" as="geometry" />
        </mxCell>
        <mxCell id="QGHms9Sv3pDndkTJVxUb-4" value="+ getters" style="text;strokeColor=none;fillColor=none;align=left;verticalAlign=top;spacingLeft=4;spacingRight=4;overflow=hidden;rotatable=0;points=[[0,0.5],[1,0.5]];portConstraint=eastwest;whiteSpace=wrap;html=1;" vertex="1" parent="QGHms9Sv3pDndkTJVxUb-1">
          <mxGeometry y="128" width="180" height="34" as="geometry" />
        </mxCell>
        <mxCell id="QGHms9Sv3pDndkTJVxUb-5" value="Seat" style="swimlane;fontStyle=1;align=center;verticalAlign=top;childLayout=stackLayout;horizontal=1;startSize=26;horizontalStack=0;resizeParent=1;resizeParentMax=0;resizeLast=0;collapsible=1;marginBottom=0;whiteSpace=wrap;html=1;" vertex="1" parent="1">
          <mxGeometry x="70" y="40" width="140" height="144" as="geometry" />
        </mxCell>
        <mxCell id="QGHms9Sv3pDndkTJVxUb-6" value="- seatNumber&lt;div&gt;- seatType&lt;/div&gt;&lt;div&gt;- status&lt;/div&gt;&lt;div&gt;- price&lt;/div&gt;&lt;div&gt;- userId&lt;/div&gt;" style="text;strokeColor=none;fillColor=none;align=left;verticalAlign=top;spacingLeft=4;spacingRight=4;overflow=hidden;rotatable=0;points=[[0,0.5],[1,0.5]];portConstraint=eastwest;whiteSpace=wrap;html=1;" vertex="1" parent="QGHms9Sv3pDndkTJVxUb-5">
          <mxGeometry y="26" width="140" height="84" as="geometry" />
        </mxCell>
        <mxCell id="QGHms9Sv3pDndkTJVxUb-7" value="" style="line;strokeWidth=1;fillColor=none;align=left;verticalAlign=middle;spacingTop=-1;spacingLeft=3;spacingRight=3;rotatable=0;labelPosition=right;points=[];portConstraint=eastwest;strokeColor=inherit;" vertex="1" parent="QGHms9Sv3pDndkTJVxUb-5">
          <mxGeometry y="110" width="140" height="8" as="geometry" />
        </mxCell>
        <mxCell id="QGHms9Sv3pDndkTJVxUb-8" value="+ getters and setters" style="text;strokeColor=none;fillColor=none;align=left;verticalAlign=top;spacingLeft=4;spacingRight=4;overflow=hidden;rotatable=0;points=[[0,0.5],[1,0.5]];portConstraint=eastwest;whiteSpace=wrap;html=1;" vertex="1" parent="QGHms9Sv3pDndkTJVxUb-5">
          <mxGeometry y="118" width="140" height="26" as="geometry" />
        </mxCell>
        <mxCell id="QGHms9Sv3pDndkTJVxUb-9" value="SeatType" style="swimlane;fontStyle=1;align=center;verticalAlign=top;childLayout=stackLayout;horizontal=1;startSize=26;horizontalStack=0;resizeParent=1;resizeParentMax=0;resizeLast=0;collapsible=1;marginBottom=0;whiteSpace=wrap;html=1;" vertex="1" parent="1">
          <mxGeometry x="300" y="40" width="150" height="118" as="geometry" />
        </mxCell>
        <mxCell id="QGHms9Sv3pDndkTJVxUb-10" value="+ ECONOMY&lt;div&gt;+ PREMIUM_ECONOMY&lt;/div&gt;&lt;div&gt;+ BUISNESS&lt;/div&gt;&lt;div&gt;+ FIRST_CLASS&lt;/div&gt;" style="text;strokeColor=none;fillColor=none;align=left;verticalAlign=top;spacingLeft=4;spacingRight=4;overflow=hidden;rotatable=0;points=[[0,0.5],[1,0.5]];portConstraint=eastwest;whiteSpace=wrap;html=1;" vertex="1" parent="QGHms9Sv3pDndkTJVxUb-9">
          <mxGeometry y="26" width="150" height="84" as="geometry" />
        </mxCell>
        <mxCell id="QGHms9Sv3pDndkTJVxUb-11" value="" style="line;strokeWidth=1;fillColor=none;align=left;verticalAlign=middle;spacingTop=-1;spacingLeft=3;spacingRight=3;rotatable=0;labelPosition=right;points=[];portConstraint=eastwest;strokeColor=inherit;" vertex="1" parent="QGHms9Sv3pDndkTJVxUb-9">
          <mxGeometry y="110" width="150" height="8" as="geometry" />
        </mxCell>
        <mxCell id="QGHms9Sv3pDndkTJVxUb-14" style="edgeStyle=orthogonalEdgeStyle;rounded=0;orthogonalLoop=1;jettySize=auto;html=1;exitX=1;exitY=0.5;exitDx=0;exitDy=0;entryX=-0.009;entryY=0.395;entryDx=0;entryDy=0;entryPerimeter=0;" edge="1" parent="1" source="QGHms9Sv3pDndkTJVxUb-6" target="QGHms9Sv3pDndkTJVxUb-10">
          <mxGeometry relative="1" as="geometry" />
        </mxCell>
        <mxCell id="QGHms9Sv3pDndkTJVxUb-15" value="User" style="swimlane;fontStyle=1;align=center;verticalAlign=top;childLayout=stackLayout;horizontal=1;startSize=26;horizontalStack=0;resizeParent=1;resizeParentMax=0;resizeLast=0;collapsible=1;marginBottom=0;whiteSpace=wrap;html=1;" vertex="1" parent="1">
          <mxGeometry x="540" y="40" width="160" height="214" as="geometry" />
        </mxCell>
        <mxCell id="QGHms9Sv3pDndkTJVxUb-16" value="- fName&lt;div&gt;- lName&lt;/div&gt;&lt;div&gt;- email&lt;/div&gt;&lt;div&gt;- phone&lt;/div&gt;&lt;div&gt;- dob&lt;/div&gt;&lt;div&gt;- userType&lt;/div&gt;&lt;div&gt;- airservice&lt;/div&gt;&lt;div&gt;- userId&lt;/div&gt;&lt;div&gt;- List&amp;lt;Booking&amp;gt; bookings&lt;/div&gt;" style="text;strokeColor=none;fillColor=none;align=left;verticalAlign=top;spacingLeft=4;spacingRight=4;overflow=hidden;rotatable=0;points=[[0,0.5],[1,0.5]];portConstraint=eastwest;whiteSpace=wrap;html=1;" vertex="1" parent="QGHms9Sv3pDndkTJVxUb-15">
          <mxGeometry y="26" width="160" height="154" as="geometry" />
        </mxCell>
        <mxCell id="QGHms9Sv3pDndkTJVxUb-17" value="" style="line;strokeWidth=1;fillColor=none;align=left;verticalAlign=middle;spacingTop=-1;spacingLeft=3;spacingRight=3;rotatable=0;labelPosition=right;points=[];portConstraint=eastwest;strokeColor=inherit;" vertex="1" parent="QGHms9Sv3pDndkTJVxUb-15">
          <mxGeometry y="180" width="160" height="8" as="geometry" />
        </mxCell>
        <mxCell id="QGHms9Sv3pDndkTJVxUb-18" value="+ getter" style="text;strokeColor=none;fillColor=none;align=left;verticalAlign=top;spacingLeft=4;spacingRight=4;overflow=hidden;rotatable=0;points=[[0,0.5],[1,0.5]];portConstraint=eastwest;whiteSpace=wrap;html=1;" vertex="1" parent="QGHms9Sv3pDndkTJVxUb-15">
          <mxGeometry y="188" width="160" height="26" as="geometry" />
        </mxCell>
        <mxCell id="QGHms9Sv3pDndkTJVxUb-19" value="UserType" style="swimlane;fontStyle=1;align=center;verticalAlign=top;childLayout=stackLayout;horizontal=1;startSize=26;horizontalStack=0;resizeParent=1;resizeParentMax=0;resizeLast=0;collapsible=1;marginBottom=0;whiteSpace=wrap;html=1;" vertex="1" parent="1">
          <mxGeometry x="780" y="36" width="160" height="118" as="geometry" />
        </mxCell>
        <mxCell id="QGHms9Sv3pDndkTJVxUb-20" value="+ PILOT&lt;div&gt;+ CREW&lt;/div&gt;&lt;div&gt;+ STAFF&lt;/div&gt;&lt;div&gt;+ PASSENGER&lt;/div&gt;&lt;div&gt;+ ADMIN&lt;/div&gt;" style="text;strokeColor=none;fillColor=none;align=left;verticalAlign=top;spacingLeft=4;spacingRight=4;overflow=hidden;rotatable=0;points=[[0,0.5],[1,0.5]];portConstraint=eastwest;whiteSpace=wrap;html=1;" vertex="1" parent="QGHms9Sv3pDndkTJVxUb-19">
          <mxGeometry y="26" width="160" height="84" as="geometry" />
        </mxCell>
        <mxCell id="QGHms9Sv3pDndkTJVxUb-21" value="" style="line;strokeWidth=1;fillColor=none;align=left;verticalAlign=middle;spacingTop=-1;spacingLeft=3;spacingRight=3;rotatable=0;labelPosition=right;points=[];portConstraint=eastwest;strokeColor=inherit;" vertex="1" parent="QGHms9Sv3pDndkTJVxUb-19">
          <mxGeometry y="110" width="160" height="8" as="geometry" />
        </mxCell>
        <mxCell id="QGHms9Sv3pDndkTJVxUb-23" style="edgeStyle=orthogonalEdgeStyle;rounded=0;orthogonalLoop=1;jettySize=auto;html=1;entryX=0;entryY=0.5;entryDx=0;entryDy=0;" edge="1" parent="1" source="QGHms9Sv3pDndkTJVxUb-16" target="QGHms9Sv3pDndkTJVxUb-20">
          <mxGeometry relative="1" as="geometry" />
        </mxCell>
        <mxCell id="QGHms9Sv3pDndkTJVxUb-24" value="Crew" style="swimlane;fontStyle=1;align=center;verticalAlign=top;childLayout=stackLayout;horizontal=1;startSize=26;horizontalStack=0;resizeParent=1;resizeParentMax=0;resizeLast=0;collapsible=1;marginBottom=0;whiteSpace=wrap;html=1;" vertex="1" parent="1">
          <mxGeometry x="425" y="270" width="160" height="134" as="geometry" />
        </mxCell>
        <mxCell id="QGHms9Sv3pDndkTJVxUb-25" value="- yoe&lt;div&gt;- flightHours&lt;/div&gt;&lt;div&gt;- PAN&lt;/div&gt;&lt;div&gt;- baseLoc&lt;/div&gt;&lt;div&gt;- designation&lt;/div&gt;" style="text;strokeColor=none;fillColor=none;align=left;verticalAlign=top;spacingLeft=4;spacingRight=4;overflow=hidden;rotatable=0;points=[[0,0.5],[1,0.5]];portConstraint=eastwest;whiteSpace=wrap;html=1;" vertex="1" parent="QGHms9Sv3pDndkTJVxUb-24">
          <mxGeometry y="26" width="160" height="74" as="geometry" />
        </mxCell>
        <mxCell id="QGHms9Sv3pDndkTJVxUb-26" value="" style="line;strokeWidth=1;fillColor=none;align=left;verticalAlign=middle;spacingTop=-1;spacingLeft=3;spacingRight=3;rotatable=0;labelPosition=right;points=[];portConstraint=eastwest;strokeColor=inherit;" vertex="1" parent="QGHms9Sv3pDndkTJVxUb-24">
          <mxGeometry y="100" width="160" height="8" as="geometry" />
        </mxCell>
        <mxCell id="QGHms9Sv3pDndkTJVxUb-27" value="+ getters and setters" style="text;strokeColor=none;fillColor=none;align=left;verticalAlign=top;spacingLeft=4;spacingRight=4;overflow=hidden;rotatable=0;points=[[0,0.5],[1,0.5]];portConstraint=eastwest;whiteSpace=wrap;html=1;" vertex="1" parent="QGHms9Sv3pDndkTJVxUb-24">
          <mxGeometry y="108" width="160" height="26" as="geometry" />
        </mxCell>
        <mxCell id="QGHms9Sv3pDndkTJVxUb-29" style="edgeStyle=orthogonalEdgeStyle;rounded=0;orthogonalLoop=1;jettySize=auto;html=1;entryX=-0.003;entryY=0.108;entryDx=0;entryDy=0;entryPerimeter=0;" edge="1" parent="1" source="QGHms9Sv3pDndkTJVxUb-24" target="QGHms9Sv3pDndkTJVxUb-18">
          <mxGeometry relative="1" as="geometry" />
        </mxCell>
        <mxCell id="QGHms9Sv3pDndkTJVxUb-30" value="GroundStaff" style="swimlane;fontStyle=1;align=center;verticalAlign=top;childLayout=stackLayout;horizontal=1;startSize=26;horizontalStack=0;resizeParent=1;resizeParentMax=0;resizeLast=0;collapsible=1;marginBottom=0;whiteSpace=wrap;html=1;" vertex="1" parent="1">
          <mxGeometry x="680" y="250" width="160" height="154" as="geometry" />
        </mxCell>
        <mxCell id="QGHms9Sv3pDndkTJVxUb-31" value="- yoe&lt;div&gt;- designation&lt;/div&gt;&lt;div&gt;- PAN&lt;/div&gt;&lt;div&gt;- baseLoc&lt;/div&gt;&lt;div&gt;- groundLoc&lt;/div&gt;&lt;div&gt;&lt;br&gt;&lt;/div&gt;" style="text;strokeColor=none;fillColor=none;align=left;verticalAlign=top;spacingLeft=4;spacingRight=4;overflow=hidden;rotatable=0;points=[[0,0.5],[1,0.5]];portConstraint=eastwest;whiteSpace=wrap;html=1;" vertex="1" parent="QGHms9Sv3pDndkTJVxUb-30">
          <mxGeometry y="26" width="160" height="94" as="geometry" />
        </mxCell>
        <mxCell id="QGHms9Sv3pDndkTJVxUb-32" value="" style="line;strokeWidth=1;fillColor=none;align=left;verticalAlign=middle;spacingTop=-1;spacingLeft=3;spacingRight=3;rotatable=0;labelPosition=right;points=[];portConstraint=eastwest;strokeColor=inherit;" vertex="1" parent="QGHms9Sv3pDndkTJVxUb-30">
          <mxGeometry y="120" width="160" height="8" as="geometry" />
        </mxCell>
        <mxCell id="QGHms9Sv3pDndkTJVxUb-33" value="+ getters and setters" style="text;strokeColor=none;fillColor=none;align=left;verticalAlign=top;spacingLeft=4;spacingRight=4;overflow=hidden;rotatable=0;points=[[0,0.5],[1,0.5]];portConstraint=eastwest;whiteSpace=wrap;html=1;" vertex="1" parent="QGHms9Sv3pDndkTJVxUb-30">
          <mxGeometry y="128" width="160" height="26" as="geometry" />
        </mxCell>
        <mxCell id="QGHms9Sv3pDndkTJVxUb-35" style="edgeStyle=orthogonalEdgeStyle;rounded=0;orthogonalLoop=1;jettySize=auto;html=1;exitX=0.5;exitY=0;exitDx=0;exitDy=0;entryX=1.027;entryY=1.01;entryDx=0;entryDy=0;entryPerimeter=0;" edge="1" parent="1" source="QGHms9Sv3pDndkTJVxUb-30" target="QGHms9Sv3pDndkTJVxUb-16">
          <mxGeometry relative="1" as="geometry" />
        </mxCell>
        <mxCell id="QGHms9Sv3pDndkTJVxUb-36" value="Baggage" style="swimlane;fontStyle=1;align=center;verticalAlign=top;childLayout=stackLayout;horizontal=1;startSize=26;horizontalStack=0;resizeParent=1;resizeParentMax=0;resizeLast=0;collapsible=1;marginBottom=0;whiteSpace=wrap;html=1;" vertex="1" parent="1">
          <mxGeometry x="130" y="270" width="160" height="174" as="geometry" />
        </mxCell>
        <mxCell id="QGHms9Sv3pDndkTJVxUb-37" value="- userId&lt;div&gt;- tagNumber&lt;/div&gt;&lt;div&gt;- flightId&lt;/div&gt;&lt;div&gt;- wt&lt;/div&gt;&lt;div&gt;- color&lt;/div&gt;&lt;div&gt;- bagType&lt;/div&gt;" style="text;strokeColor=none;fillColor=none;align=left;verticalAlign=top;spacingLeft=4;spacingRight=4;overflow=hidden;rotatable=0;points=[[0,0.5],[1,0.5]];portConstraint=eastwest;whiteSpace=wrap;html=1;" vertex="1" parent="QGHms9Sv3pDndkTJVxUb-36">
          <mxGeometry y="26" width="160" height="114" as="geometry" />
        </mxCell>
        <mxCell id="QGHms9Sv3pDndkTJVxUb-38" value="" style="line;strokeWidth=1;fillColor=none;align=left;verticalAlign=middle;spacingTop=-1;spacingLeft=3;spacingRight=3;rotatable=0;labelPosition=right;points=[];portConstraint=eastwest;strokeColor=inherit;" vertex="1" parent="QGHms9Sv3pDndkTJVxUb-36">
          <mxGeometry y="140" width="160" height="8" as="geometry" />
        </mxCell>
        <mxCell id="QGHms9Sv3pDndkTJVxUb-39" value="+ getters" style="text;strokeColor=none;fillColor=none;align=left;verticalAlign=top;spacingLeft=4;spacingRight=4;overflow=hidden;rotatable=0;points=[[0,0.5],[1,0.5]];portConstraint=eastwest;whiteSpace=wrap;html=1;" vertex="1" parent="QGHms9Sv3pDndkTJVxUb-36">
          <mxGeometry y="148" width="160" height="26" as="geometry" />
        </mxCell>
        <mxCell id="QGHms9Sv3pDndkTJVxUb-40" value="BagType" style="swimlane;fontStyle=1;align=center;verticalAlign=top;childLayout=stackLayout;horizontal=1;startSize=26;horizontalStack=0;resizeParent=1;resizeParentMax=0;resizeLast=0;collapsible=1;marginBottom=0;whiteSpace=wrap;html=1;" vertex="1" parent="1">
          <mxGeometry x="-110" y="260" width="140" height="118" as="geometry" />
        </mxCell>
        <mxCell id="QGHms9Sv3pDndkTJVxUb-41" value="+ TROLLEY&lt;div&gt;+ DUFFLE&lt;/div&gt;&lt;div&gt;+ SACKBAG&lt;/div&gt;&lt;div&gt;+ PARCEL&lt;/div&gt;&lt;div&gt;+ FRAGILE&lt;/div&gt;" style="text;strokeColor=none;fillColor=none;align=left;verticalAlign=top;spacingLeft=4;spacingRight=4;overflow=hidden;rotatable=0;points=[[0,0.5],[1,0.5]];portConstraint=eastwest;whiteSpace=wrap;html=1;" vertex="1" parent="QGHms9Sv3pDndkTJVxUb-40">
          <mxGeometry y="26" width="140" height="84" as="geometry" />
        </mxCell>
        <mxCell id="QGHms9Sv3pDndkTJVxUb-42" value="" style="line;strokeWidth=1;fillColor=none;align=left;verticalAlign=middle;spacingTop=-1;spacingLeft=3;spacingRight=3;rotatable=0;labelPosition=right;points=[];portConstraint=eastwest;strokeColor=inherit;" vertex="1" parent="QGHms9Sv3pDndkTJVxUb-40">
          <mxGeometry y="110" width="140" height="8" as="geometry" />
        </mxCell>
        <mxCell id="QGHms9Sv3pDndkTJVxUb-44" style="edgeStyle=orthogonalEdgeStyle;rounded=0;orthogonalLoop=1;jettySize=auto;html=1;entryX=1;entryY=0.5;entryDx=0;entryDy=0;" edge="1" parent="1" source="QGHms9Sv3pDndkTJVxUb-37" target="QGHms9Sv3pDndkTJVxUb-40">
          <mxGeometry relative="1" as="geometry" />
        </mxCell>
        <mxCell id="QGHms9Sv3pDndkTJVxUb-45" value="Flight" style="swimlane;fontStyle=1;align=center;verticalAlign=top;childLayout=stackLayout;horizontal=1;startSize=26;horizontalStack=0;resizeParent=1;resizeParentMax=0;resizeLast=0;collapsible=1;marginBottom=0;whiteSpace=wrap;html=1;" vertex="1" parent="1">
          <mxGeometry x="230" y="-190" width="160" height="154" as="geometry" />
        </mxCell>
        <mxCell id="QGHms9Sv3pDndkTJVxUb-46" value="- source&lt;div&gt;- destination&lt;/div&gt;&lt;div&gt;- arrival&lt;/div&gt;&lt;div&gt;- departure&lt;/div&gt;&lt;div&gt;- List&amp;lt;Seat&amp;gt; seats&lt;/div&gt;&lt;div&gt;- aircraft&lt;/div&gt;" style="text;strokeColor=none;fillColor=none;align=left;verticalAlign=top;spacingLeft=4;spacingRight=4;overflow=hidden;rotatable=0;points=[[0,0.5],[1,0.5]];portConstraint=eastwest;whiteSpace=wrap;html=1;" vertex="1" parent="QGHms9Sv3pDndkTJVxUb-45">
          <mxGeometry y="26" width="160" height="94" as="geometry" />
        </mxCell>
        <mxCell id="QGHms9Sv3pDndkTJVxUb-47" value="" style="line;strokeWidth=1;fillColor=none;align=left;verticalAlign=middle;spacingTop=-1;spacingLeft=3;spacingRight=3;rotatable=0;labelPosition=right;points=[];portConstraint=eastwest;strokeColor=inherit;" vertex="1" parent="QGHms9Sv3pDndkTJVxUb-45">
          <mxGeometry y="120" width="160" height="8" as="geometry" />
        </mxCell>
        <mxCell id="QGHms9Sv3pDndkTJVxUb-48" value="+ getters and setters" style="text;strokeColor=none;fillColor=none;align=left;verticalAlign=top;spacingLeft=4;spacingRight=4;overflow=hidden;rotatable=0;points=[[0,0.5],[1,0.5]];portConstraint=eastwest;whiteSpace=wrap;html=1;" vertex="1" parent="QGHms9Sv3pDndkTJVxUb-45">
          <mxGeometry y="128" width="160" height="26" as="geometry" />
        </mxCell>
        <mxCell id="QGHms9Sv3pDndkTJVxUb-50" style="edgeStyle=orthogonalEdgeStyle;rounded=0;orthogonalLoop=1;jettySize=auto;html=1;entryX=0.5;entryY=0;entryDx=0;entryDy=0;" edge="1" parent="1" source="QGHms9Sv3pDndkTJVxUb-46" target="QGHms9Sv3pDndkTJVxUb-5">
          <mxGeometry relative="1" as="geometry" />
        </mxCell>
        <mxCell id="QGHms9Sv3pDndkTJVxUb-51" value="Booking" style="swimlane;fontStyle=1;align=center;verticalAlign=top;childLayout=stackLayout;horizontal=1;startSize=26;horizontalStack=0;resizeParent=1;resizeParentMax=0;resizeLast=0;collapsible=1;marginBottom=0;whiteSpace=wrap;html=1;" vertex="1" parent="1">
          <mxGeometry x="500" y="-200" width="160" height="214" as="geometry" />
        </mxCell>
        <mxCell id="QGHms9Sv3pDndkTJVxUb-52" value="- userId&lt;div&gt;- seat&lt;/div&gt;&lt;div&gt;- src&lt;/div&gt;&lt;div&gt;- dest&lt;/div&gt;&lt;div&gt;- flightId&lt;/div&gt;&lt;div&gt;- modifiedAt&lt;/div&gt;&lt;div&gt;- createdAt&lt;/div&gt;&lt;div&gt;- price&lt;/div&gt;&lt;div&gt;- baggageId&lt;/div&gt;&lt;div&gt;+ PaymentStrategy&lt;/div&gt;" style="text;strokeColor=none;fillColor=none;align=left;verticalAlign=top;spacingLeft=4;spacingRight=4;overflow=hidden;rotatable=0;points=[[0,0.5],[1,0.5]];portConstraint=eastwest;whiteSpace=wrap;html=1;" vertex="1" parent="QGHms9Sv3pDndkTJVxUb-51">
          <mxGeometry y="26" width="160" height="154" as="geometry" />
        </mxCell>
        <mxCell id="QGHms9Sv3pDndkTJVxUb-53" value="" style="line;strokeWidth=1;fillColor=none;align=left;verticalAlign=middle;spacingTop=-1;spacingLeft=3;spacingRight=3;rotatable=0;labelPosition=right;points=[];portConstraint=eastwest;strokeColor=inherit;" vertex="1" parent="QGHms9Sv3pDndkTJVxUb-51">
          <mxGeometry y="180" width="160" height="8" as="geometry" />
        </mxCell>
        <mxCell id="QGHms9Sv3pDndkTJVxUb-54" value="+ getters and setters" style="text;strokeColor=none;fillColor=none;align=left;verticalAlign=top;spacingLeft=4;spacingRight=4;overflow=hidden;rotatable=0;points=[[0,0.5],[1,0.5]];portConstraint=eastwest;whiteSpace=wrap;html=1;" vertex="1" parent="QGHms9Sv3pDndkTJVxUb-51">
          <mxGeometry y="188" width="160" height="26" as="geometry" />
        </mxCell>
        <mxCell id="QGHms9Sv3pDndkTJVxUb-55" style="edgeStyle=orthogonalEdgeStyle;rounded=0;orthogonalLoop=1;jettySize=auto;html=1;entryX=0.997;entryY=0.074;entryDx=0;entryDy=0;entryPerimeter=0;" edge="1" parent="1" source="QGHms9Sv3pDndkTJVxUb-52" target="QGHms9Sv3pDndkTJVxUb-15">
          <mxGeometry relative="1" as="geometry" />
        </mxCell>
        <mxCell id="QGHms9Sv3pDndkTJVxUb-56" style="edgeStyle=orthogonalEdgeStyle;rounded=0;orthogonalLoop=1;jettySize=auto;html=1;entryX=0.99;entryY=0.638;entryDx=0;entryDy=0;entryPerimeter=0;" edge="1" parent="1" source="QGHms9Sv3pDndkTJVxUb-52" target="QGHms9Sv3pDndkTJVxUb-46">
          <mxGeometry relative="1" as="geometry" />
        </mxCell>
        <mxCell id="QGHms9Sv3pDndkTJVxUb-57" style="edgeStyle=orthogonalEdgeStyle;rounded=0;orthogonalLoop=1;jettySize=auto;html=1;entryX=0.75;entryY=0;entryDx=0;entryDy=0;" edge="1" parent="1" source="QGHms9Sv3pDndkTJVxUb-54" target="QGHms9Sv3pDndkTJVxUb-36">
          <mxGeometry relative="1" as="geometry">
            <Array as="points">
              <mxPoint x="460" y="1" />
              <mxPoint x="460" y="240" />
              <mxPoint x="273" y="240" />
              <mxPoint x="273" y="250" />
              <mxPoint x="250" y="250" />
            </Array>
          </mxGeometry>
        </mxCell>
        <mxCell id="QGHms9Sv3pDndkTJVxUb-58" style="edgeStyle=orthogonalEdgeStyle;rounded=0;orthogonalLoop=1;jettySize=auto;html=1;entryX=0.75;entryY=0;entryDx=0;entryDy=0;" edge="1" parent="1" source="QGHms9Sv3pDndkTJVxUb-46" target="QGHms9Sv3pDndkTJVxUb-1">
          <mxGeometry relative="1" as="geometry" />
        </mxCell>
        <mxCell id="QGHms9Sv3pDndkTJVxUb-64" value="&lt;p style=&quot;margin:0px;margin-top:4px;text-align:center;&quot;&gt;&lt;i&gt;&amp;lt;&amp;lt;Interface&amp;gt;&amp;gt;&lt;/i&gt;&lt;br&gt;&lt;b&gt;PaymentStrategy&lt;/b&gt;&lt;/p&gt;&lt;hr size=&quot;1&quot; style=&quot;border-style:solid;&quot;&gt;&lt;p style=&quot;margin:0px;margin-left:4px;&quot;&gt;&lt;br&gt;&lt;/p&gt;&lt;hr size=&quot;1&quot; style=&quot;border-style:solid;&quot;&gt;&lt;p style=&quot;margin:0px;margin-left:4px;&quot;&gt;+ pay(int): void&lt;/p&gt;" style="verticalAlign=top;align=left;overflow=fill;html=1;whiteSpace=wrap;" vertex="1" parent="1">
          <mxGeometry x="1590" y="-418" width="190" height="100" as="geometry" />
        </mxCell>
        <mxCell id="QGHms9Sv3pDndkTJVxUb-65" value="CreditCardPaymentStrategy" style="swimlane;fontStyle=1;align=center;verticalAlign=top;childLayout=stackLayout;horizontal=1;startSize=26;horizontalStack=0;resizeParent=1;resizeParentMax=0;resizeLast=0;collapsible=1;marginBottom=0;whiteSpace=wrap;html=1;" vertex="1" parent="1">
          <mxGeometry x="1450" y="-248" width="160" height="124" as="geometry" />
        </mxCell>
        <mxCell id="QGHms9Sv3pDndkTJVxUb-66" value="+ cardNum: String&lt;div&gt;+ cvv: int&lt;/div&gt;&lt;div&gt;+ expiryDate: Date&lt;div&gt;+ PaymentValidator&lt;/div&gt;&lt;/div&gt;" style="text;strokeColor=none;fillColor=none;align=left;verticalAlign=top;spacingLeft=4;spacingRight=4;overflow=hidden;rotatable=0;points=[[0,0.5],[1,0.5]];portConstraint=eastwest;whiteSpace=wrap;html=1;" vertex="1" parent="QGHms9Sv3pDndkTJVxUb-65">
          <mxGeometry y="26" width="160" height="64" as="geometry" />
        </mxCell>
        <mxCell id="QGHms9Sv3pDndkTJVxUb-67" value="" style="line;strokeWidth=1;fillColor=none;align=left;verticalAlign=middle;spacingTop=-1;spacingLeft=3;spacingRight=3;rotatable=0;labelPosition=right;points=[];portConstraint=eastwest;strokeColor=inherit;" vertex="1" parent="QGHms9Sv3pDndkTJVxUb-65">
          <mxGeometry y="90" width="160" height="8" as="geometry" />
        </mxCell>
        <mxCell id="QGHms9Sv3pDndkTJVxUb-68" value="+ pay(int): void" style="text;strokeColor=none;fillColor=none;align=left;verticalAlign=top;spacingLeft=4;spacingRight=4;overflow=hidden;rotatable=0;points=[[0,0.5],[1,0.5]];portConstraint=eastwest;whiteSpace=wrap;html=1;" vertex="1" parent="QGHms9Sv3pDndkTJVxUb-65">
          <mxGeometry y="98" width="160" height="26" as="geometry" />
        </mxCell>
        <mxCell id="QGHms9Sv3pDndkTJVxUb-69" value="BankPaymentStrategy" style="swimlane;fontStyle=1;align=center;verticalAlign=top;childLayout=stackLayout;horizontal=1;startSize=26;horizontalStack=0;resizeParent=1;resizeParentMax=0;resizeLast=0;collapsible=1;marginBottom=0;whiteSpace=wrap;html=1;" vertex="1" parent="1">
          <mxGeometry x="1640" y="-248" width="160" height="124" as="geometry" />
        </mxCell>
        <mxCell id="QGHms9Sv3pDndkTJVxUb-70" value="+ bankName: String&lt;div&gt;+ accoutNum: String&lt;/div&gt;&lt;div&gt;&lt;div&gt;+&amp;nbsp;&lt;span style=&quot;background-color: initial;&quot;&gt;PaymentValidator&lt;/span&gt;&lt;/div&gt;&lt;div&gt;&lt;br&gt;&lt;/div&gt;&lt;/div&gt;" style="text;strokeColor=none;fillColor=none;align=left;verticalAlign=top;spacingLeft=4;spacingRight=4;overflow=hidden;rotatable=0;points=[[0,0.5],[1,0.5]];portConstraint=eastwest;whiteSpace=wrap;html=1;" vertex="1" parent="QGHms9Sv3pDndkTJVxUb-69">
          <mxGeometry y="26" width="160" height="64" as="geometry" />
        </mxCell>
        <mxCell id="QGHms9Sv3pDndkTJVxUb-71" value="" style="line;strokeWidth=1;fillColor=none;align=left;verticalAlign=middle;spacingTop=-1;spacingLeft=3;spacingRight=3;rotatable=0;labelPosition=right;points=[];portConstraint=eastwest;strokeColor=inherit;" vertex="1" parent="QGHms9Sv3pDndkTJVxUb-69">
          <mxGeometry y="90" width="160" height="8" as="geometry" />
        </mxCell>
        <mxCell id="QGHms9Sv3pDndkTJVxUb-72" value="+ pay(int): void" style="text;strokeColor=none;fillColor=none;align=left;verticalAlign=top;spacingLeft=4;spacingRight=4;overflow=hidden;rotatable=0;points=[[0,0.5],[1,0.5]];portConstraint=eastwest;whiteSpace=wrap;html=1;" vertex="1" parent="QGHms9Sv3pDndkTJVxUb-69">
          <mxGeometry y="98" width="160" height="26" as="geometry" />
        </mxCell>
        <mxCell id="QGHms9Sv3pDndkTJVxUb-73" value="" style="endArrow=block;dashed=1;endFill=0;endSize=12;html=1;rounded=0;exitX=-0.009;exitY=0.64;exitDx=0;exitDy=0;exitPerimeter=0;entryX=0.599;entryY=-0.029;entryDx=0;entryDy=0;entryPerimeter=0;" edge="1" parent="1" source="QGHms9Sv3pDndkTJVxUb-64" target="QGHms9Sv3pDndkTJVxUb-65">
          <mxGeometry width="160" relative="1" as="geometry">
            <mxPoint x="1680" y="-248" as="sourcePoint" />
            <mxPoint x="1840" y="-248" as="targetPoint" />
            <Array as="points">
              <mxPoint x="1550" y="-354" />
            </Array>
          </mxGeometry>
        </mxCell>
        <mxCell id="QGHms9Sv3pDndkTJVxUb-74" value="" style="endArrow=block;dashed=1;endFill=0;endSize=12;html=1;rounded=0;exitX=0.5;exitY=1;exitDx=0;exitDy=0;entryX=0.296;entryY=0.023;entryDx=0;entryDy=0;entryPerimeter=0;" edge="1" parent="1" source="QGHms9Sv3pDndkTJVxUb-64" target="QGHms9Sv3pDndkTJVxUb-69">
          <mxGeometry width="160" relative="1" as="geometry">
            <mxPoint x="1598" y="-344" as="sourcePoint" />
            <mxPoint x="1556" y="-242" as="targetPoint" />
            <Array as="points" />
          </mxGeometry>
        </mxCell>
        <mxCell id="QGHms9Sv3pDndkTJVxUb-75" value="" style="endArrow=block;dashed=1;endFill=0;endSize=12;html=1;rounded=0;exitX=1;exitY=0.5;exitDx=0;exitDy=0;entryX=0.101;entryY=-0.023;entryDx=0;entryDy=0;entryPerimeter=0;" edge="1" parent="1" source="QGHms9Sv3pDndkTJVxUb-64" target="QGHms9Sv3pDndkTJVxUb-76">
          <mxGeometry width="160" relative="1" as="geometry">
            <mxPoint x="1695" y="-308" as="sourcePoint" />
            <mxPoint x="1830" y="-258" as="targetPoint" />
            <Array as="points">
              <mxPoint x="1810" y="-368" />
            </Array>
          </mxGeometry>
        </mxCell>
        <mxCell id="QGHms9Sv3pDndkTJVxUb-76" value="UPIPaymentStrategy" style="swimlane;fontStyle=1;align=center;verticalAlign=top;childLayout=stackLayout;horizontal=1;startSize=26;horizontalStack=0;resizeParent=1;resizeParentMax=0;resizeLast=0;collapsible=1;marginBottom=0;whiteSpace=wrap;html=1;" vertex="1" parent="1">
          <mxGeometry x="1820" y="-248" width="160" height="124" as="geometry" />
        </mxCell>
        <mxCell id="QGHms9Sv3pDndkTJVxUb-77" value="+ UPIId: String&lt;div&gt;+ phone: String&lt;/div&gt;&lt;div&gt;&lt;div&gt;+ PaymentValidator&lt;br&gt;&lt;/div&gt;&lt;div&gt;&lt;br&gt;&lt;/div&gt;&lt;/div&gt;" style="text;strokeColor=none;fillColor=none;align=left;verticalAlign=top;spacingLeft=4;spacingRight=4;overflow=hidden;rotatable=0;points=[[0,0.5],[1,0.5]];portConstraint=eastwest;whiteSpace=wrap;html=1;" vertex="1" parent="QGHms9Sv3pDndkTJVxUb-76">
          <mxGeometry y="26" width="160" height="64" as="geometry" />
        </mxCell>
        <mxCell id="QGHms9Sv3pDndkTJVxUb-78" value="" style="line;strokeWidth=1;fillColor=none;align=left;verticalAlign=middle;spacingTop=-1;spacingLeft=3;spacingRight=3;rotatable=0;labelPosition=right;points=[];portConstraint=eastwest;strokeColor=inherit;" vertex="1" parent="QGHms9Sv3pDndkTJVxUb-76">
          <mxGeometry y="90" width="160" height="8" as="geometry" />
        </mxCell>
        <mxCell id="QGHms9Sv3pDndkTJVxUb-79" value="+ pay(int): void" style="text;strokeColor=none;fillColor=none;align=left;verticalAlign=top;spacingLeft=4;spacingRight=4;overflow=hidden;rotatable=0;points=[[0,0.5],[1,0.5]];portConstraint=eastwest;whiteSpace=wrap;html=1;" vertex="1" parent="QGHms9Sv3pDndkTJVxUb-76">
          <mxGeometry y="98" width="160" height="26" as="geometry" />
        </mxCell>
        <mxCell id="QGHms9Sv3pDndkTJVxUb-80" value="PaymentContext" style="swimlane;fontStyle=1;align=center;verticalAlign=top;childLayout=stackLayout;horizontal=1;startSize=26;horizontalStack=0;resizeParent=1;resizeParentMax=0;resizeLast=0;collapsible=1;marginBottom=0;whiteSpace=wrap;html=1;" vertex="1" parent="1">
          <mxGeometry x="920" y="-376" width="160" height="88" as="geometry" />
        </mxCell>
        <mxCell id="QGHms9Sv3pDndkTJVxUb-81" value="+ currentDate: datetime&lt;div&gt;+ paymentInfo: String&lt;/div&gt;" style="text;strokeColor=none;fillColor=none;align=left;verticalAlign=top;spacingLeft=4;spacingRight=4;overflow=hidden;rotatable=0;points=[[0,0.5],[1,0.5]];portConstraint=eastwest;whiteSpace=wrap;html=1;" vertex="1" parent="QGHms9Sv3pDndkTJVxUb-80">
          <mxGeometry y="26" width="160" height="54" as="geometry" />
        </mxCell>
        <mxCell id="QGHms9Sv3pDndkTJVxUb-82" value="" style="line;strokeWidth=1;fillColor=none;align=left;verticalAlign=middle;spacingTop=-1;spacingLeft=3;spacingRight=3;rotatable=0;labelPosition=right;points=[];portConstraint=eastwest;strokeColor=inherit;" vertex="1" parent="QGHms9Sv3pDndkTJVxUb-80">
          <mxGeometry y="80" width="160" height="8" as="geometry" />
        </mxCell>
        <mxCell id="QGHms9Sv3pDndkTJVxUb-83" value="&lt;p style=&quot;margin:0px;margin-top:4px;text-align:center;&quot;&gt;&lt;i&gt;&amp;lt;&amp;lt;Interface&amp;gt;&amp;gt;&lt;/i&gt;&lt;br&gt;&lt;b&gt;PaymentValidatorStrategy&lt;/b&gt;&lt;/p&gt;&lt;hr size=&quot;1&quot; style=&quot;border-style:solid;&quot;&gt;&lt;p style=&quot;margin:0px;margin-left:4px;&quot;&gt;&lt;br&gt;&lt;/p&gt;&lt;hr size=&quot;1&quot; style=&quot;border-style:solid;&quot;&gt;&lt;p style=&quot;margin:0px;margin-left:4px;&quot;&gt;+ validate(PaymentContext)&lt;/p&gt;" style="verticalAlign=top;align=left;overflow=fill;html=1;whiteSpace=wrap;" vertex="1" parent="1">
          <mxGeometry x="1180" y="-398" width="190" height="100" as="geometry" />
        </mxCell>
        <mxCell id="QGHms9Sv3pDndkTJVxUb-84" value="Use" style="endArrow=open;endSize=12;dashed=1;html=1;rounded=0;" edge="1" parent="1">
          <mxGeometry width="160" relative="1" as="geometry">
            <mxPoint x="1080" y="-332.5" as="sourcePoint" />
            <mxPoint x="1180" y="-332" as="targetPoint" />
          </mxGeometry>
        </mxCell>
        <mxCell id="QGHms9Sv3pDndkTJVxUb-85" value="CreditCardPaymentValidator" style="swimlane;fontStyle=1;align=center;verticalAlign=top;childLayout=stackLayout;horizontal=1;startSize=26;horizontalStack=0;resizeParent=1;resizeParentMax=0;resizeLast=0;collapsible=1;marginBottom=0;whiteSpace=wrap;html=1;" vertex="1" parent="1">
          <mxGeometry x="930" y="-248" width="160" height="60" as="geometry" />
        </mxCell>
        <mxCell id="QGHms9Sv3pDndkTJVxUb-86" value="" style="line;strokeWidth=1;fillColor=none;align=left;verticalAlign=middle;spacingTop=-1;spacingLeft=3;spacingRight=3;rotatable=0;labelPosition=right;points=[];portConstraint=eastwest;strokeColor=inherit;" vertex="1" parent="QGHms9Sv3pDndkTJVxUb-85">
          <mxGeometry y="26" width="160" height="8" as="geometry" />
        </mxCell>
        <mxCell id="QGHms9Sv3pDndkTJVxUb-87" value="+ validate(PaymentContext)" style="text;strokeColor=none;fillColor=none;align=left;verticalAlign=top;spacingLeft=4;spacingRight=4;overflow=hidden;rotatable=0;points=[[0,0.5],[1,0.5]];portConstraint=eastwest;whiteSpace=wrap;html=1;" vertex="1" parent="QGHms9Sv3pDndkTJVxUb-85">
          <mxGeometry y="34" width="160" height="26" as="geometry" />
        </mxCell>
        <mxCell id="QGHms9Sv3pDndkTJVxUb-88" value="BankPaymentValidator" style="swimlane;fontStyle=1;align=center;verticalAlign=top;childLayout=stackLayout;horizontal=1;startSize=26;horizontalStack=0;resizeParent=1;resizeParentMax=0;resizeLast=0;collapsible=1;marginBottom=0;whiteSpace=wrap;html=1;" vertex="1" parent="1">
          <mxGeometry x="1100" y="-248" width="160" height="60" as="geometry" />
        </mxCell>
        <mxCell id="QGHms9Sv3pDndkTJVxUb-89" value="" style="line;strokeWidth=1;fillColor=none;align=left;verticalAlign=middle;spacingTop=-1;spacingLeft=3;spacingRight=3;rotatable=0;labelPosition=right;points=[];portConstraint=eastwest;strokeColor=inherit;" vertex="1" parent="QGHms9Sv3pDndkTJVxUb-88">
          <mxGeometry y="26" width="160" height="8" as="geometry" />
        </mxCell>
        <mxCell id="QGHms9Sv3pDndkTJVxUb-90" value="+ validate(PaymentContext)" style="text;strokeColor=none;fillColor=none;align=left;verticalAlign=top;spacingLeft=4;spacingRight=4;overflow=hidden;rotatable=0;points=[[0,0.5],[1,0.5]];portConstraint=eastwest;whiteSpace=wrap;html=1;" vertex="1" parent="QGHms9Sv3pDndkTJVxUb-88">
          <mxGeometry y="34" width="160" height="26" as="geometry" />
        </mxCell>
        <mxCell id="QGHms9Sv3pDndkTJVxUb-91" value="UPIPaymentValidator" style="swimlane;fontStyle=1;align=center;verticalAlign=top;childLayout=stackLayout;horizontal=1;startSize=26;horizontalStack=0;resizeParent=1;resizeParentMax=0;resizeLast=0;collapsible=1;marginBottom=0;whiteSpace=wrap;html=1;" vertex="1" parent="1">
          <mxGeometry x="1280" y="-248" width="160" height="60" as="geometry" />
        </mxCell>
        <mxCell id="QGHms9Sv3pDndkTJVxUb-92" value="" style="line;strokeWidth=1;fillColor=none;align=left;verticalAlign=middle;spacingTop=-1;spacingLeft=3;spacingRight=3;rotatable=0;labelPosition=right;points=[];portConstraint=eastwest;strokeColor=inherit;" vertex="1" parent="QGHms9Sv3pDndkTJVxUb-91">
          <mxGeometry y="26" width="160" height="8" as="geometry" />
        </mxCell>
        <mxCell id="QGHms9Sv3pDndkTJVxUb-93" value="+ validate(PaymentContext)" style="text;strokeColor=none;fillColor=none;align=left;verticalAlign=top;spacingLeft=4;spacingRight=4;overflow=hidden;rotatable=0;points=[[0,0.5],[1,0.5]];portConstraint=eastwest;whiteSpace=wrap;html=1;" vertex="1" parent="QGHms9Sv3pDndkTJVxUb-91">
          <mxGeometry y="34" width="160" height="26" as="geometry" />
        </mxCell>
        <mxCell id="QGHms9Sv3pDndkTJVxUb-94" value="" style="endArrow=block;dashed=1;endFill=0;endSize=12;html=1;rounded=0;exitX=0.111;exitY=1.008;exitDx=0;exitDy=0;exitPerimeter=0;entryX=0.688;entryY=0;entryDx=0;entryDy=0;entryPerimeter=0;" edge="1" parent="1" source="QGHms9Sv3pDndkTJVxUb-83" target="QGHms9Sv3pDndkTJVxUb-85">
          <mxGeometry width="160" relative="1" as="geometry">
            <mxPoint x="1350" y="-238" as="sourcePoint" />
            <mxPoint x="1510" y="-238" as="targetPoint" />
            <Array as="points">
              <mxPoint x="1120" y="-298" />
            </Array>
          </mxGeometry>
        </mxCell>
        <mxCell id="QGHms9Sv3pDndkTJVxUb-95" value="" style="endArrow=block;dashed=1;endFill=0;endSize=12;html=1;rounded=0;exitX=0.308;exitY=0.992;exitDx=0;exitDy=0;exitPerimeter=0;" edge="1" parent="1" source="QGHms9Sv3pDndkTJVxUb-83" target="QGHms9Sv3pDndkTJVxUb-88">
          <mxGeometry width="160" relative="1" as="geometry">
            <mxPoint x="1211" y="-287" as="sourcePoint" />
            <mxPoint x="1050" y="-238" as="targetPoint" />
            <Array as="points">
              <mxPoint x="1180" y="-299" />
            </Array>
          </mxGeometry>
        </mxCell>
        <mxCell id="QGHms9Sv3pDndkTJVxUb-96" value="" style="endArrow=block;dashed=1;endFill=0;endSize=12;html=1;rounded=0;exitX=0.658;exitY=0.96;exitDx=0;exitDy=0;exitPerimeter=0;entryX=0.171;entryY=0.02;entryDx=0;entryDy=0;entryPerimeter=0;" edge="1" parent="1" source="QGHms9Sv3pDndkTJVxUb-83" target="QGHms9Sv3pDndkTJVxUb-91">
          <mxGeometry width="160" relative="1" as="geometry">
            <mxPoint x="1221" y="-277" as="sourcePoint" />
            <mxPoint x="1060" y="-228" as="targetPoint" />
            <Array as="points" />
          </mxGeometry>
        </mxCell>
        <mxCell id="QGHms9Sv3pDndkTJVxUb-97" value="Use" style="endArrow=open;endSize=12;dashed=1;html=1;rounded=0;exitX=0.999;exitY=0.32;exitDx=0;exitDy=0;exitPerimeter=0;entryX=0;entryY=0.5;entryDx=0;entryDy=0;" edge="1" parent="1" source="QGHms9Sv3pDndkTJVxUb-83" target="QGHms9Sv3pDndkTJVxUb-64">
          <mxGeometry width="160" relative="1" as="geometry">
            <mxPoint x="1350" y="-238" as="sourcePoint" />
            <mxPoint x="1510" y="-238" as="targetPoint" />
          </mxGeometry>
        </mxCell>
        <mxCell id="QGHms9Sv3pDndkTJVxUb-98" value="has-a" style="text;html=1;align=center;verticalAlign=middle;resizable=0;points=[];autosize=1;strokeColor=none;fillColor=none;" vertex="1" parent="1">
          <mxGeometry x="1175" y="-440" width="50" height="30" as="geometry" />
        </mxCell>
        <mxCell id="QGHms9Sv3pDndkTJVxUb-100" style="edgeStyle=orthogonalEdgeStyle;rounded=0;orthogonalLoop=1;jettySize=auto;html=1;" edge="1" parent="1" source="QGHms9Sv3pDndkTJVxUb-101" target="QGHms9Sv3pDndkTJVxUb-64">
          <mxGeometry relative="1" as="geometry">
            <Array as="points">
              <mxPoint x="2050" y="-368" />
            </Array>
          </mxGeometry>
        </mxCell>
        <mxCell id="QGHms9Sv3pDndkTJVxUb-101" value="PayMentManagerFactory" style="swimlane;fontStyle=1;align=center;verticalAlign=top;childLayout=stackLayout;horizontal=1;startSize=26;horizontalStack=0;resizeParent=1;resizeParentMax=0;resizeLast=0;collapsible=1;marginBottom=0;whiteSpace=wrap;html=1;" vertex="1" parent="1">
          <mxGeometry x="1920" y="-80" width="160" height="60" as="geometry" />
        </mxCell>
        <mxCell id="QGHms9Sv3pDndkTJVxUb-102" value="" style="line;strokeWidth=1;fillColor=none;align=left;verticalAlign=middle;spacingTop=-1;spacingLeft=3;spacingRight=3;rotatable=0;labelPosition=right;points=[];portConstraint=eastwest;strokeColor=inherit;" vertex="1" parent="QGHms9Sv3pDndkTJVxUb-101">
          <mxGeometry y="26" width="160" height="8" as="geometry" />
        </mxCell>
        <mxCell id="QGHms9Sv3pDndkTJVxUb-103" value="+ static pay()" style="text;strokeColor=none;fillColor=none;align=left;verticalAlign=top;spacingLeft=4;spacingRight=4;overflow=hidden;rotatable=0;points=[[0,0.5],[1,0.5]];portConstraint=eastwest;whiteSpace=wrap;html=1;" vertex="1" parent="QGHms9Sv3pDndkTJVxUb-101">
          <mxGeometry y="34" width="160" height="26" as="geometry" />
        </mxCell>
        <mxCell id="QGHms9Sv3pDndkTJVxUb-104" value="HAS-A" style="text;html=1;align=center;verticalAlign=middle;resizable=0;points=[];autosize=1;strokeColor=none;fillColor=none;" vertex="1" parent="1">
          <mxGeometry x="2040" y="-233" width="60" height="30" as="geometry" />
        </mxCell>
        <mxCell id="QGHms9Sv3pDndkTJVxUb-105" value="ReservationType" style="swimlane;fontStyle=0;childLayout=stackLayout;horizontal=1;startSize=26;fillColor=none;horizontalStack=0;resizeParent=1;resizeParentMax=0;resizeLast=0;collapsible=1;marginBottom=0;whiteSpace=wrap;html=1;" vertex="1" parent="1">
          <mxGeometry x="1380" y="-110" width="140" height="80" as="geometry" />
        </mxCell>
        <mxCell id="QGHms9Sv3pDndkTJVxUb-106" value="+ HOURLY&lt;div&gt;+ DAILY&lt;/div&gt;" style="text;strokeColor=none;fillColor=none;align=left;verticalAlign=top;spacingLeft=4;spacingRight=4;overflow=hidden;rotatable=0;points=[[0,0.5],[1,0.5]];portConstraint=eastwest;whiteSpace=wrap;html=1;" vertex="1" parent="QGHms9Sv3pDndkTJVxUb-105">
          <mxGeometry y="26" width="140" height="54" as="geometry" />
        </mxCell>
        <mxCell id="QGHms9Sv3pDndkTJVxUb-107" style="edgeStyle=orthogonalEdgeStyle;rounded=0;orthogonalLoop=1;jettySize=auto;html=1;exitX=0.576;exitY=-0.01;exitDx=0;exitDy=0;exitPerimeter=0;" edge="1" parent="1" source="QGHms9Sv3pDndkTJVxUb-51" target="QGHms9Sv3pDndkTJVxUb-64">
          <mxGeometry relative="1" as="geometry">
            <Array as="points">
              <mxPoint x="592" y="-230" />
              <mxPoint x="660" y="-230" />
              <mxPoint x="660" y="-470" />
              <mxPoint x="1685" y="-470" />
            </Array>
          </mxGeometry>
        </mxCell>
      </root>
    </mxGraphModel>
  </diagram>
</mxfile>
